<svg width="103" height="122" viewBox="0 0 103 122" fill="none" xmlns="http://www.w3.org/2000/svg">
<path d="M46.7183 5.40184C40.5961 12.378 39.4329 14.648 39.8002 19.1327C39.9839 20.9597 40.7185 23.4512 41.392 24.6693C42.1879 26.0534 46.5346 30.0398 52.963 35.2442C83.8802 60.3805 88.8392 64.5329 90.0025 66.1386C90.982 67.5781 91.1657 68.5193 90.8596 72.0074L90.6147 76.1599L92.635 74.0559C101.329 65.0312 103.9 60.3805 102.737 55.5636C101.573 51.0236 99.9205 49.0304 91.2881 42.0543C56.8812 14.3158 52.7181 10.7724 51.9222 8.55772C51.1875 6.6199 51.3712 3.07646 52.2895 0.972547C53.2079 -1.2421 51.1875 0.363519 46.7183 5.40184Z" fill="#FF0E04"/>
<path d="M26.821 27.9913C20.6988 34.9674 19.7804 36.6284 19.7804 40.7255C19.7804 46.9265 20.3314 47.4802 43.2898 66.0832C54.6159 75.274 65.2686 84.0219 66.9828 85.5721C70.8398 88.9494 71.8806 91.607 70.901 95.5934C70.35 97.808 70.4725 99.3029 71.0847 98.5278C71.2072 98.4171 73.3499 95.9256 75.9213 93.0465C78.4314 90.1675 81.0027 86.9563 81.5537 86.015C84.0638 81.5304 83.0843 75.1079 79.3497 71.3984C78.2477 70.291 73.2275 66.0832 68.146 61.9861C63.1258 57.889 58.3505 54.0687 57.5546 53.4597C56.8199 52.7953 51.1262 48.1999 44.9428 43.217C38.6981 38.1786 33.1881 33.251 32.6371 32.2545C31.4739 30.1505 31.229 27.7698 31.9024 24.78C32.1473 23.6727 32.1473 22.7315 31.9024 22.7315C31.6576 22.7315 29.3311 25.1122 26.821 27.9913Z" fill="#FF0E04"/>
<path d="M7.22988 50.027C0.679092 57.28 -0.300465 59.1624 0.0668687 64.0346C0.189313 66.6368 0.740314 68.6854 1.47498 69.8481C2.51576 71.3983 13.7194 81.0321 27.4332 92.0499C47.3305 108.106 49.5345 109.989 50.514 112.314C51.3099 114.252 51.3712 115.248 50.8814 117.74C50.5753 119.401 50.4528 120.896 50.6365 121.006C51.065 121.228 58.228 113.366 60.7382 109.878C62.8809 106.943 63.4932 102.514 62.3299 98.5831C61.5953 96.0917 57.7383 92.1607 49.4733 85.5721C44.8204 81.8072 35.8207 74.5542 34.4738 73.5023C33.8004 72.8932 28.6577 68.6854 23.0252 64.1454C16.4132 58.7748 12.5562 55.2314 12.1889 54.1241C11.3318 52.0755 11.3318 48.6982 12.1277 46.8711C13.2909 44.0474 11.6991 45.0994 7.22988 50.027Z" fill="#FF0E04"/>
</svg>
